# xmcd CD database file
# Copyright (C) 1995-1998 Ti Kan
#
# Track frame offsets:
#	150
#	10731
#	22317
#	35488
#	55395
#	76006
#	90472
#	110547
#	130957
#	151125
#
# Disc length: 2233 seconds
#
# Revision: 1
# Processed by: cddbd v1.4b42PL1 Copyright (c) Steve Scherf et al.
# Submitted via: CDex 1.30Release
#
DISCID=7308b70a
DTITLE=Babs Winn - Good Home Cookin'
DYEAR=1999
DGENRE=Country
TTITLE0=Good Home Cookin'
TTITLE1=Nothin Doin'
TTITLE2=If It Didn't Work Once (It Ain't Gonna Work Twice)
TTITLE3=It's A Miracle To Me
TTITLE4=Lead Me Not
TTITLE5=Diamond In The Rough
TTITLE6=Three Comin' Back At You
TTITLE7=Love, Savannah
TTITLE8=The Blame Has Got To End
TTITLE9=I'm In Love With The World
EXTD=YEAR: 1999 ID3G:   2
EXTT0=
EXTT1=
EXTT2=
EXTT3=
EXTT4=
EXTT5=
EXTT6=
EXTT7=
EXTT8=
EXTT9=
PLAYORDER=
